<svg xmlns="http://www.w3.org/2000/svg" xmlns:xlink="http://www.w3.org/1999/xlink" width="40" height="40" viewBox="0 0 40 40"><defs><path id="4ylza" d="M885 3867h36a2 2 0 0 1 2 2v36a2 2 0 0 1-2 2h-36a2 2 0 0 1-2-2v-36c0-1.1.9-2 2-2z"/><path id="4ylzc" d="M907 3883.83h-2.72v-1.87c0-.7.44-.87.75-.87h1.93v-3.08l-2.65-.01c-2.94 0-3.61 2.3-3.61 3.77v2.06H899v3.18h1.7v8.99h3.58v-9h2.4z"/><clipPath id="4ylzb"><use fill="#fff" xlink:href="#4ylza"/></clipPath></defs><g><g transform="translate(-883 -3867)"><use fill="#fff" xlink:href="#4ylza"/><use fill="#fff" fill-opacity="0" stroke="#fff" stroke-linecap="round" stroke-linejoin="round" stroke-miterlimit="50" stroke-width="4" clip-path="url(&quot;#4ylzb&quot;)" xlink:href="#4ylza"/></g><g transform="translate(-883 -3867)"><use fill="#fff" xlink:href="#4ylzc"/></g></g></svg>