<svg xmlns="http://www.w3.org/2000/svg" xmlns:xlink="http://www.w3.org/1999/xlink" width="40" height="40" viewBox="0 0 40 40"><defs><path id="5ujca" d="M979 3867h36a2 2 0 0 1 2 2v36a2 2 0 0 1-2 2h-36a2 2 0 0 1-2-2v-36c0-1.1.9-2 2-2z"/><path id="5ujcc" d="M997.59 3886.22l.01-.03v.03zm7.41-6.07v13.7c0 .64-.53 1.15-1.18 1.15h-13.64c-.65 0-1.18-.51-1.18-1.15v-13.7c0-.64.53-1.15 1.18-1.15h13.64c.65 0 1.18.51 1.18 1.15zm-11.15 5.02h-2.42v7.22h2.42zm.16-2.24c-.02-.7-.53-1.24-1.35-1.24-.83 0-1.37.54-1.37 1.24s.52 1.25 1.34 1.25h.01c.84 0 1.37-.55 1.37-1.25zm8.55 5.32c0-2.22-1.19-3.25-2.78-3.25a2.4 2.4 0 0 0-2.18 1.2v-1.03h-2.41c.03.68 0 7.22 0 7.22h2.41v-4.03c0-.22.02-.43.08-.59.18-.43.58-.88 1.24-.88.88 0 1.23.67 1.23 1.64v3.86h2.41z"/><clipPath id="5ujcb"><use fill="#fff" xlink:href="#5ujca"/></clipPath></defs><g><g transform="translate(-977 -3867)"><use fill="#fff" xlink:href="#5ujca"/><use fill="#fff" fill-opacity="0" stroke="#fff" stroke-linecap="round" stroke-linejoin="round" stroke-miterlimit="50" stroke-width="4" clip-path="url(&quot;#5ujcb&quot;)" xlink:href="#5ujca"/></g><g transform="translate(-977 -3867)"><use fill="#fff" xlink:href="#5ujcc"/></g></g></svg>