<svg xmlns="http://www.w3.org/2000/svg" xmlns:xlink="http://www.w3.org/1999/xlink" width="20" height="14" viewBox="0 0 20 14"><defs><path id="4g33a" d="M435 2799.28l-.04-.03a3.64 3.64 0 0 0-2.64-.94l-.03-.07h.02c.92-.2 1.46-.4 1.62-.63.06-.18-.01-.28-.21-.3-.46.06-.89.15-1.27.29.48-.3.67-.5.57-.6-.48.01-.99.24-1.53.7.2-.33.28-.5.23-.53-.26.16-.48.34-.68.53-.4.43-.72.83-.97 1.19l-.02.03c-.64.98-1.09 1.97-1.36 2.98l-.1.07-.01.02a5.02 5.02 0 0 0-1.4-1.15c-.66-.4-1.43-.79-2.31-1.16a20.2 20.2 0 0 0-2.94-1.16c0 1.05.54 1.88 1.62 2.49v.02c-.39-.01-.75.04-1.1.15.06.97.79 1.64 2.17 2.01v.02c-.55-.03-1 .15-1.34.52.45.84 1.26 1.24 2.42 1.21-.23.11-.4.23-.53.37-.21.21-.28.46-.21.74.25.43.7.63 1.36.6l.04.04-.02.02a5.18 5.18 0 0 1-4.14 1.5l-.02.02c-.99 0-2.04-.45-3.18-1.34a9.77 9.77 0 0 0 4.55 3.39c2.16.67 4.32.72 6.47.14h.03a10.28 10.28 0 0 0 5.32-3.5 6.9 6.9 0 0 0 1.27-2.66c1.09.04 1.87-.26 2.36-.89l-.01-.02c-.36.12-1.07.09-2.13-.12v-.1c0-.01 0-.01 0 0 1.16-.13 1.84-.48 2.06-1.07-.8.3-1.6.3-2.38.03a4.76 4.76 0 0 0-1.54-2.8z"/></defs><g><g transform="translate(-419 -2797)"><use fill="#c6cacc" xlink:href="#4g33a"/></g></g></svg>