<svg xmlns="http://www.w3.org/2000/svg" xmlns:xlink="http://www.w3.org/1999/xlink" width="16" height="16" viewBox="0 0 16 16"><defs><path id="afdha" d="M997.59 3886.22l.01-.03v.03zm7.41-6.07v13.7c0 .64-.53 1.15-1.18 1.15h-13.64c-.65 0-1.18-.51-1.18-1.15v-13.7c0-.64.53-1.15 1.18-1.15h13.64c.65 0 1.18.51 1.18 1.15zm-11.15 5.02h-2.42v7.22h2.42zm.16-2.24c-.02-.7-.53-1.24-1.35-1.24-.83 0-1.37.54-1.37 1.24s.52 1.25 1.34 1.25h.01c.84 0 1.37-.55 1.37-1.25zm8.55 5.32c0-2.22-1.19-3.25-2.78-3.25a2.4 2.4 0 0 0-2.18 1.2v-1.03h-2.41c.03.68 0 7.22 0 7.22h2.41v-4.03c0-.22.02-.43.08-.59.18-.43.58-.88 1.24-.88.88 0 1.23.67 1.23 1.64v3.86h2.41z"/></defs><g><g transform="translate(-989 -3879)"><use fill="#fff" xlink:href="#afdha"/></g></g></svg>